<?xml version="1.0" standalone="no"?><!DOCTYPE svg PUBLIC "-//W3C//DTD SVG 1.1//EN" "http://www.w3.org/Graphics/SVG/1.1/DTD/svg11.dtd"><svg t="1577903243885" class="icon" viewBox="0 0 1024 1024" version="1.1" xmlns="http://www.w3.org/2000/svg" p-id="6280" xmlns:xlink="http://www.w3.org/1999/xlink" width="64" height="64"><defs><style type="text/css"></style></defs><path d="M533.31 416.75m40.42 0l-0.01 0q40.42 0 40.42 40.42l0 2.72q0 40.42-40.42 40.42l0.01 0q-40.42 0-40.42-40.42l0-2.72q0-40.42 40.42-40.42Z" fill="#68748E" p-id="6281"></path><path d="M817.93 416.68a42.12 42.12 0 0 0-41.82 42.07v0.1a41.82 41.82 0 1 0 41.82-42.17z" fill="#68748E" p-id="6282"></path><path d="M851.56 77.33H172.44C77.6 77.33 0 154.93 0 249.78v355.55c0 94.85 77.6 172.45 172.44 172.45h240.29L511.49 947l95.62-169.2h244.45c94.84 0 172.44-77.6 172.44-172.45V249.78c0-94.85-77.6-172.45-172.44-172.45z m-626.2 479.11c-21.43 0-41-8.93-56.1-23.68v18.14h-64V283h64v101.15c15.07-14.74 34.67-23.67 56.1-23.67 47.57 0 86.13 43.86 86.13 98s-38.56 97.96-86.13 97.96zM425.87 419.7v131.2h-64.6V377.1a53.44 53.44 0 0 0-3.2-18.62c-3.8-10.17-11.14-20-23.9-20v-64.6h0.05c26.37 0 50.25 11.33 67.24 31.91 13.86 16.78 22.5 38.95 24.34 62.42l0.1 1.26z m254.63 39.15a97.59 97.59 0 0 1-97.59 97.59h-18.17a97.59 97.59 0 0 1-97.59-97.59 97.58 97.58 0 0 1 97.59-97.58h18.17a97.58 97.58 0 0 1 97.59 97.58zM918.74 552l-0.34 2.28c-5.59 37-19.19 62.54-41.59 77.93-23.1 15.87-51.52 18-76.28 18V588.8c39.57 0 50.79-4.13 56.82-41.5v-1.93h-0.05v-14.16c-15.27 15.68-35.5 25.23-57.69 25.23-47.56 0-86.12-43.87-86.12-98s38.56-98 86.12-98c22.19 0 42.42 9.55 57.69 25.22V366.6h61.43v134.07z" fill="#68748E" p-id="6283"></path><path d="M207.62 416.36a42.29 42.29 0 0 0-42.4 42.17 41.79 41.79 0 0 0 5.32 20.47l0.24 0.43c0.34 0.58 0.68 1.16 1 1.72l0.51 0.79c0.35 0.52 0.71 1 1.08 1.52s0.72 0.95 1.09 1.41c0.2 0.25 0.4 0.51 0.61 0.75 0.34 0.41 0.68 0.8 1 1.2l0.4 0.43c0.74 0.79 1.5 1.54 2.29 2.27l0.35 0.33q0.62 0.56 1.26 1.08l0.62 0.5c0.57 0.46 1.15 0.9 1.75 1.33 0.41 0.29 0.82 0.59 1.25 0.87l0.87 0.56q0.81 0.51 1.65 1c0.15 0.08 0.3 0.18 0.46 0.26a42.24 42.24 0 1 0 20.57-79.05z" fill="#68748E" p-id="6284"></path></svg>